<svg id="Calque_1" data-name="Calque 1" xmlns="http://www.w3.org/2000/svg" viewBox="0 0 787.79 689.47"><defs><style>.cls-1,.cls-2,.cls-3,.cls-4,.cls-5,.cls-6{fill:none;stroke-miterlimit:10;}.cls-1{stroke:#333378;stroke-width:27px;}.cls-2,.cls-3,.cls-4,.cls-5,.cls-6{stroke:#f7941d;}.cls-2{stroke-width:18px;}.cls-3{stroke-width:11px;}.cls-4{stroke-width:12px;}.cls-5{stroke-width:9px;}.cls-6{stroke-width:13px;}.cls-7{fill:#f7941d;}</style></defs><title>Sans titre - 1</title><path class="cls-1" d="M347.43,284.35V202.24l59.16-38.85,63.57,43.26v430L408.8,675.5l-61.37-36.2V550.12" transform="translate(-106.1 -147.15)"/><path class="cls-1" d="M406.85,219.32V308.5l-61.37,39.73-60.92-40.62V265.23L345.7,225.5" transform="translate(-106.1 -147.15)"/><path class="cls-1" d="M408.58,619.41V530.23L347.21,490.5l-60.92,40.62V573.5l61.14,39.73" transform="translate(-106.1 -147.15)"/><path class="cls-1" d="M417.63,409.73v60.48l52.53,26.93" transform="translate(-106.1 -147.15)"/><path class="cls-1" d="M397.76,380.15c-18.19,12.34,72.4-49.89,72.4-49.89" transform="translate(-106.1 -147.15)"/><path class="cls-1" d="M345.48,348.23v38.1l-54.12,23.4v58.72" transform="translate(-106.1 -147.15)"/><path class="cls-1" d="M347.21,490.5s.22-75,.22-60" transform="translate(-106.1 -147.15)"/><polyline class="cls-1" points="178.45 160.47 126.1 191.5 126.1 357.5 180.18 383.97"/><path class="cls-1" d="M291.36,355.21c14.77-10.91-59.16,43.48-59.16,43.48" transform="translate(-106.1 -147.15)"/><polyline class="cls-2" points="516.62 411.8 516.62 419.2 516.62 466.48 516.62 492.55 455.26 528.75 393.9 489.9 393.9 350.4 393.9 183.52 393.9 59.91 457.47 16.64 516.62 55.49 516.62 102.59"/><polyline class="cls-2" points="518.35 78.75 579.5 118.48 579.5 160.86 518.57 201.48 457.21 161.75 457.21 104.34"/><polyline class="cls-2" points="455.48 465.63 455.48 383.48 516.84 343.75 577.77 384.36 577.77 426.75 516.62 466.48"/><polyline class="cls-2" points="446.43 290.03 446.43 323.46 393.9 350.4"/><path class="cls-2" d="M500,330.67s43.85,30.06,61.59,42.29" transform="translate(-106.1 -147.15)"/><polyline class="cls-2" points="518.57 201.48 518.57 239.58 572.69 262.98 572.69 307.35"/><path class="cls-2" d="M622.85,459.72c0,15.56.1,31.18.1,31.18" transform="translate(-106.1 -147.15)"/><polyline class="cls-2" points="579.5 160.86 631.85 191.9 631.85 357.9 577.77 384.37"/><path class="cls-2" d="M691.93,365.24l46,33.85" transform="translate(-106.1 -147.15)"/><circle class="cls-3" cx="446.43" cy="276.29" r="13.74"/><circle class="cls-3" cx="466" cy="234.62" r="13.74"/><circle class="cls-4" cx="516.2" cy="296.29" r="16.29"/><circle class="cls-5" cx="457.21" cy="88.05" r="16.29"/><circle class="cls-3" cx="516.2" cy="118.86" r="16.29"/><circle class="cls-3" cx="572.69" cy="208.46" r="16.29"/><circle class="cls-4" cx="572.69" cy="323.64" r="16.29"/><circle class="cls-4" cx="516.84" cy="395.52" r="16.29"/><circle class="cls-6" cx="455.26" cy="481.91" r="16.29"/><path class="cls-7" d="M139.66,697.47a33.56,33.56,0,0,1,25.67,55.29c-.58.67-1.25,1.34-1.93,2a33,33,0,0,1-23.65,9.9H106.1v-67.3ZM118,752.76h21.63a21.64,21.64,0,0,0,0-43.27H118Z" transform="translate(-106.1 -147.15)"/><path class="cls-7" d="M183,764.68v-67.3h12v67.3Z" transform="translate(-106.1 -147.15)"/><path class="cls-7" d="M216.67,731a21.66,21.66,0,0,0,21.63,21.63h21.63V739.78H238.3v-12H272v36.92H238.3a33.65,33.65,0,0,1,0-67.3H272v12H238.3A21.66,21.66,0,0,0,216.67,731Z" transform="translate(-106.1 -147.15)"/><path class="cls-7" d="M281.56,764.68v-67.3h12v67.3Z" transform="translate(-106.1 -147.15)"/><path class="cls-7" d="M370.4,697.47v12H342.81v55.28h-12V709.49h-27.6v-12Z" transform="translate(-106.1 -147.15)"/><path class="cls-7" d="M426,764.68H412.51l-6.15-12-14.71-28.84-14.71,28.84-6.16,12H357.32l6.16-12,28.17-55.28,28.17,55.28Z" transform="translate(-106.1 -147.15)"/><path class="cls-7" d="M484.71,752.76v12H450.58a20.8,20.8,0,0,1-9.42-2.21,21.29,21.29,0,0,1-9.71-9.8,21,21,0,0,1-2.21-9.43V697.47h12v47a9.58,9.58,0,0,0,8.17,8.17Z" transform="translate(-106.1 -147.15)"/><path class="cls-7" d="M596.53,702.86a18,18,0,0,1,5.28,12.79,18.21,18.21,0,0,1-10.57,16.53,16,16,0,0,1-5.19,1.44h-.58v.1H553.26v31h-12v-67.3h42.4a18,18,0,0,1,12.79,5.29Zm-10.29,18.36a6.1,6.1,0,0,0,3.65-5.57,6.37,6.37,0,0,0-1.82-4.43,6.05,6.05,0,0,0-4.33-1.73H553.26v12.4h30.48a5.69,5.69,0,0,0,2.5-.57Z" transform="translate(-106.1 -147.15)"/><path class="cls-7" d="M678.63,697.38V731a33.65,33.65,0,0,1-67.3,0V697.38h12V731a21.64,21.64,0,0,0,43.27,0V697.38Z" transform="translate(-106.1 -147.15)"/><path class="cls-7" d="M743.72,752.76v12H709.59a20.8,20.8,0,0,1-9.42-2.21,21.29,21.29,0,0,1-9.71-9.8,21,21,0,0,1-2.21-9.43V697.47h12v47a9.6,9.6,0,0,0,8.18,8.17Z" transform="translate(-106.1 -147.15)"/><path class="cls-7" d="M805,716v-.38a6.19,6.19,0,0,0-6.15-6.16h-27.3a6.2,6.2,0,0,0-6.16,6.16V716a6.19,6.19,0,0,0,6.16,6.15h24.22a21.14,21.14,0,0,1,15.68,6.93c.28.28.48.57.77.86a21.26,21.26,0,0,1-16.45,34.71H774.68a21.26,21.26,0,0,1-21.25-21.25h12a9.23,9.23,0,0,0,9.23,9.23h21.05a9.23,9.23,0,1,0,0-18.46H771.51a18,18,0,0,1-12.6-5.09,17.65,17.65,0,0,1-2.31-2.89,17.92,17.92,0,0,1-3.17-10.29v-.38a18.14,18.14,0,0,1,18.08-18.17h27.3A18.22,18.22,0,0,1,817,715.55v.38Z" transform="translate(-106.1 -147.15)"/><path class="cls-7" d="M838.61,715.55v6.25h43.27v12H838.61v12.69a6.2,6.2,0,0,0,6.16,6.15H893.9v12H844.77a18.14,18.14,0,0,1-18.08-18.17v-31a18.14,18.14,0,0,1,18.08-18.17H893.9v12H844.77A6.19,6.19,0,0,0,838.61,715.55Z" transform="translate(-106.1 -147.15)"/><path class="cls-7" d="M400,836.37l-5.43-11.88H370.14l-5.38,11.88H362L381,794.61h2.68l19.12,41.76ZM371.22,822h22.22l-11.17-24.5Z" transform="translate(-106.1 -147.15)"/><path class="cls-7" d="M431.92,814.63h14.7v16.49a22.16,22.16,0,0,1-6.81,4,22.44,22.44,0,0,1-8,1.46A21.21,21.21,0,0,1,421,833.75a21.53,21.53,0,0,1-7.86-7.74,20.39,20.39,0,0,1-2.9-10.61,20,20,0,0,1,2.93-10.57,21.88,21.88,0,0,1,18.76-10.52,21.74,21.74,0,0,1,7.92,1.47,22.49,22.49,0,0,1,6.78,4.09l-1.5,1.85a19,19,0,0,0-6-3.7,19.66,19.66,0,0,0-7.17-1.32,18.85,18.85,0,0,0-9.59,2.54,19.5,19.5,0,0,0-7,6.81,17.7,17.7,0,0,0-2.6,9.35,18.07,18.07,0,0,0,2.57,9.44,19.26,19.26,0,0,0,16.61,9.38,19.74,19.74,0,0,0,6.63-1.13,19.26,19.26,0,0,0,5.8-3.23V817H431.92Z" transform="translate(-106.1 -147.15)"/><path class="cls-7" d="M465.14,794.61h26.94v2.45H467.65v16.67H489.4v2.51H467.65v17.69h25.21v2.44H465.14Z" transform="translate(-106.1 -147.15)"/><path class="cls-7" d="M539.82,794.61h2.45v41.76h-2.93l-27.84-38v38H509V794.61h2.93l27.9,38.06Z" transform="translate(-106.1 -147.15)"/><path class="cls-7" d="M586.12,798.08a18.74,18.74,0,0,0-7.1-1.38A19.2,19.2,0,0,0,562.46,806a18.46,18.46,0,0,0,0,18.76,19.24,19.24,0,0,0,7,6.85,19.41,19.41,0,0,0,16.67,1.19,20,20,0,0,0,6.06-3.79l1.55,1.73a21.51,21.51,0,0,1-6.78,4.3,21.06,21.06,0,0,1-8,1.55,21.59,21.59,0,0,1-18.68-10.54,20.9,20.9,0,0,1,0-21.21,21.76,21.76,0,0,1,26.59-9.05,22.11,22.11,0,0,1,6.78,4.18l-1.49,1.91A19.37,19.37,0,0,0,586.12,798.08Z" transform="translate(-106.1 -147.15)"/><path class="cls-7" d="M638,794.61l-16.49,26.47v15.29H619V821.2l-16.72-26.59H605l15.24,23.48,15.06-23.48Z" transform="translate(-106.1 -147.15)"/></svg>